# xmcd
#
# Track frame offsets: 
#        150
#        15557
#        30054
#        41979
#        55671
#        71384
#        85770
#        99647
#        113467
#        126784
#        133612
#        152724
#        167663
#        182561
#        195395
#        208083
#        221043
#        234118
#        247907
#        263216
#
# Disc length: 3697 seconds
#
# Revision: 1
# Processed by: cddbd v1.5.2PL0 Copyright (c) Steve Scherf et al.
# Submitted via: ExactAudioCopy v1.0b3
#
DISCID=fd0e6f14
DTITLE=Billie Holiday - Simply Billie Holiday [CD2)
DYEAR=2009
DGENRE=Jazz
TTITLE0=Don't Explain
TTITLE1=Fine And Mellow
TTITLE2=No Regrets
TTITLE3=What A Little Moonlight Can Do
TTITLE4=I Can't Give You Anything But Love
TTITLE5=Solitude
TTITLE6=On The Sunny Side Of The Street
TTITLE7=My Man
TTITLE8=I've Got My Love To Keep Me Warm
TTITLE9=I'll Get By
TTITLE10=Billie's Blues (I Love My Man)
TTITLE11=These Foolish Things
TTITLE12=Pennies From Heaven
TTITLE13=Them There Eyes
TTITLE14=No More
TTITLE15=A Fine Romance
TTITLE16=You Go To My Head
TTITLE17=He's Funny That Way
TTITLE18=Yesterdays
TTITLE19=Strange Fruit
EXTD=
EXTT0=
EXTT1=
EXTT2=
EXTT3=
EXTT4=
EXTT5=
EXTT6=
EXTT7=
EXTT8=
EXTT9=
EXTT10=
EXTT11=
EXTT12=
EXTT13=
EXTT14=
EXTT15=
EXTT16=
EXTT17=
EXTT18=
EXTT19=
PLAYORDER=
